# Blender 3.6.5
# www.blender.org
mtllib untitled.mtl
o Cube
v -5.000000 0.050000 3.000000
v -5.000000 0.050000 -3.000000
v 5.000000 0.050000 3.000000
v 5.000000 0.050000 -3.000000
v -5.000000 2.986503 3.000000
v -5.000000 2.986503 -3.000000
v 5.049621 2.986503 -3.000000
v 5.049621 2.986503 3.000000
v 5.024505 -0.063871 3.071008
v 5.147288 3.007551 3.100611
v 5.147288 3.007551 -3.039114
v -5.096340 2.974463 -3.002961
v -5.094566 2.974885 3.074130
v 5.024505 -0.063871 -3.068717
v -5.107964 -0.063871 3.071008
v -5.107964 -0.063871 -3.068717
v -5.059031 2.973808 2.996878
v -5.057257 2.974229 -3.065756
vn -0.0000 1.0000 -0.0000
vn -0.0000 -0.0000 -1.0000
vn 1.0000 -0.0000 -0.0000
vn -0.0000 -0.0000 1.0000
vn -0.9999 0.0169 -0.0000
vn 0.0012 -1.0000 -0.0000
vn -0.0032 1.0000 -0.0000
vn 0.9992 -0.0399 -0.0000
vn -0.0000 -1.0000 -0.0000
vn -0.9999 0.0164 -0.0001
vn -0.0013 -0.0053 1.0000
vn 0.0013 0.0053 -1.0000
vt 0.625000 0.500000
vt 0.875000 0.500000
vt 0.875000 0.750000
vt 0.625000 0.750000
s 0
f 4/1/1 2/2/1 1/3/1 3/4/1
f 3/4/2 1/3/2 5/3/2 8/4/2
f 1/3/3 2/2/3 6/2/3 5/3/3
f 2/2/4 4/1/4 7/1/4 6/2/4
f 4/1/5 3/4/5 8/4/5 7/1/5
f 7/1/6 8/4/6 13/4/6 12/1/6
f 12/1/7 13/4/7 10/4/7 11/1/7
f 11/1/8 10/4/8 9/4/8 14/1/8
f 14/1/9 9/4/9 15/4/9 16/1/9
f 16/1/10 15/4/10 17/4/10 18/1/10
f 13/4/11 15/4/11 9/4/11 10/4/11
f 14/1/12 16/1/12 18/1/12 11/1/12
